<svg xmlns="http://www.w3.org/2000/svg" width="32" height="23" viewBox="0 0 32 23"><g><g><path fill="#fff" d="M31.95 21.503s0-3.613-2.649-4.927c-1.676-.83-1.03-.194-3.088-1.045-2.058-.85-2.546-1.127-2.546-1.127l-.018-1.948s.771-.583 1.012-2.426c.48.14.643-.561.67-1.01.028-.432.284-1.78-.305-1.66.12-.9.215-1.714.172-2.146-.147-1.512-1.196-3.092-3.845-3.206-2.251.114-3.713 1.695-3.86 3.207-.043.432.043 1.245.164 2.147-.589-.122-.336 1.23-.31 1.661.029.448.188 1.152.67 1.012.24 1.843 1.01 2.43 1.01 2.43l-.019 1.951c.701.166.794.032 2.206.732 3.301 1.638 3.301 6.142 3.301 6.142v.002c0 .591-.416 1.082-.972 1.205h7.412c.55 0 .995-.443.995-.992v-.002zm-17.725-7.901l-.02-2.142s.848-.64 1.112-2.666c.529.153.708-.617.736-1.11.032-.475.313-1.957-.334-1.825.133-.99.236-1.884.19-2.359-.162-1.662-1.316-3.399-4.227-3.525C9.207.103 7.6 1.84 7.438 3.503c-.047.473.048 1.367.18 2.359-.646-.135-.368 1.35-.34 1.825.032.492.207 1.266.737 1.113.263 2.024 1.11 2.67 1.11 2.67l-.02 2.152s-.537.327-2.799 1.26c-2.262.935-1.552.193-3.395 1.106C0 17.433 0 21.405 0 21.405H0v.003c0 .602.49 1.09 1.094 1.09h21.142c.604 0 1.093-.488 1.093-1.09v-.003s0-3.972-2.91-5.415c-1.843-.915-1.134-.215-3.396-1.15-2.262-.934-2.798-1.238-2.798-1.238z"/></g></g></svg>